<?xml version="1.0" encoding="UTF-8" standalone="no"?>
<!-- Created with Inkscape (http://www.inkscape.org/) -->

<svg
   width="100.00001mm"
   height="100mm"
   viewBox="0 0 100.00001 100"
   version="1.1"
   id="svg5"
   inkscape:version="1.2.2 (1:1.2.2+202212051550+b0a8486541)"
   sodipodi:docname="hatches.svg"
   xmlns:inkscape="http://www.inkscape.org/namespaces/inkscape"
   xmlns:sodipodi="http://sodipodi.sourceforge.net/DTD/sodipodi-0.dtd"
   xmlns="http://www.w3.org/2000/svg"
   xmlns:svg="http://www.w3.org/2000/svg">
  <sodipodi:namedview
     id="namedview7"
     pagecolor="#ffffff"
     bordercolor="#666666"
     borderopacity="1.0"
     inkscape:showpageshadow="2"
     inkscape:pageopacity="0.0"
     inkscape:pagecheckerboard="0"
     inkscape:deskcolor="#d1d1d1"
     inkscape:document-units="mm"
     showgrid="false"
     inkscape:zoom="0.58838337"
     inkscape:cx="53.536523"
     inkscape:cy="306.77278"
     inkscape:window-width="1600"
     inkscape:window-height="847"
     inkscape:window-x="0"
     inkscape:window-y="0"
     inkscape:window-maximized="1"
     inkscape:current-layer="layer1" />
  <defs
     id="defs2">
    <inkscape:path-effect
       effect="rough_hatches"
       id="path-effect1664"
       is_visible="true"
       lpeversion="1.2"
       direction="132.40379,56.137186 , 20.282956,24.910936"
       dist_rdm="75;1"
       growth="0"
       do_bend="true"
       bender="130.92667,62.676165 , 3.9315828,-0.98013923"
       bottom_edge_variation="9.1490364;1"
       top_edge_variation="9.1490364;1"
       bottom_tgt_variation="0;1"
       top_tgt_variation="0;1"
       scale_bf="1"
       scale_bb="1"
       scale_tf="1"
       scale_tb="1"
       top_smth_variation="0;1"
       bottom_smth_variation="0;1"
       fat_output="true"
       stroke_width_top="1"
       stroke_width_bottom="1"
       front_thickness="1"
       back_thickness="0.25" />
  </defs>
  <g
     inkscape:label="Layer 1"
     inkscape:groupmode="layer"
     id="layer1"
     transform="translate(-81.632805,-12.805021)">
    <path
       style="fill:#000000;stroke:#000000;stroke-width:4.25299;stroke-linejoin:round;stroke-dasharray:none;stop-color:#000000"
       id="rect1662"
       width="83.25592"
       height="89.286896"
       x="88.739944"
       y="16.77499"
       rx="1.4799042"
       ry="6.3826776"
       inkscape:path-effect="#path-effect1664"
       d="m 171.99586,98.601745 c 0,0 -10.3734,7.710075 -15.80475,7.710035 -6.01724,-4e-5 14.7239,-16.690586 14.72669,-23.658305 0.001,-3.724971 -10.13688,2.608108 -21.15219,9.868886 -11.01909,7.263271 -22.93823,15.467509 -26.39681,15.467319 -3.74733,-2e-4 7.69657,-10.729102 20.00383,-21.711836 12.31624,-10.990742 25.47975,-22.221153 25.48104,-23.330362 0.002,-1.344114 -14.49545,9.756304 -29.62045,21.219088 -15.12198,11.460489 -30.87047,23.27836 -33.03825,23.27827 -2.46339,-1e-4 13.49841,-13.857167 29.95491,-28.442404 16.47301,-14.599881 33.39389,-29.884675 33.39668,-32.929462 0.003,-3.27626 -19.09732,10.670177 -38.36654,24.804857 C 111.91558,85.009008 92.472031,99.335067 92.305608,96.677598 92.125796,93.806342 112.87496,75.477596 132.98087,57.407359 153.11934,39.307852 172.63336,21.450341 170.81039,19.2096 168.87424,16.829756 148.67695,31.437309 128.82698,46.42397 108.9887,61.401814 89.463738,76.781669 89.463467,75.769512 c -3.32e-4,-1.24049 17.397713,-16.029506 34.163913,-30.443767 16.77877,-14.425072 32.95565,-28.505886 31.06467,-28.505888 -2.18925,-3e-6 -18.88155,12.828473 -35.12706,25.170321 -16.2438,12.340554 -32.034747,24.195578 -32.033818,22.147727 0.001,-2.283539 12.635938,-13.75291 24.673188,-24.608222 12.04651,-10.86366 23.52147,-21.137894 21.50999,-21.137987 -2.3077,-1.06e-4 -13.92089,8.608072 -25.00042,16.750899 -11.078804,8.142289 -21.617326,15.815415 -21.616144,13.903648 0.0027,-4.311929 31.610834,-30.296311 23.359414,-30.296776 -8.84855,-4.99e-4 -24.356382,12.780236 -24.168143,7.807319 0.207428,-5.479861 5.211611,-9.781796 5.211611,-9.781796 0,0 -5.752024,4.591261 -5.973921,10.409912 -0.241304,6.327516 16.912953,-7.807985 24.168653,-7.807447 7.85278,5.84e-4 -23.362261,25.660921 -23.366464,30.298535 -0.0023,2.561869 10.93437,-5.109747 22.216434,-13.416549 11.28008,-8.305336 22.89154,-17.239463 24.40562,-17.239366 1.81243,1.16e-4 -9.66591,10.194334 -21.66472,21.018077 -11.989364,10.815212 -24.526516,22.285278 -24.528329,24.730592 -0.002,2.693864 16.188039,-9.159287 32.636819,-21.664194 16.44831,-12.504549 33.13911,-25.656078 34.53287,-25.656051 1.69202,3.3e-5 -14.48931,14.001494 -31.22102,28.386995 -16.71875,14.374364 -34.019836,29.164457 -34.019864,30.565727 -3.4e-5,1.654524 19.684184,-13.526949 39.609834,-28.571245 19.93658,-15.052542 40.13106,-29.979212 41.74754,-27.991273 1.74248,2.142895 -17.78128,19.926197 -37.90513,38.012619 -20.09117,18.057046 -40.804756,36.436433 -40.616333,39.459539 0.203443,3.264109 19.643533,-10.73488 38.906633,-24.859942 19.26803,-14.128668 38.34652,-28.375223 38.34336,-25.746935 -0.003,2.883164 -17.02517,18.168883 -33.54998,32.809615 -16.50856,14.626335 -32.47502,28.565371 -29.81476,28.565531 2.95584,1.6e-4 18.70189,-11.495822 33.62999,-22.796478 14.9281,-11.300655 29.03806,-22.405934 29.03704,-21.70296 -0.001,0.948409 -13.26524,12.179654 -25.63253,23.210818 -12.35851,11.023337 -23.80583,21.83352 -19.86205,21.8338 4.24555,3.1e-4 16.16444,-7.88484 26.98916,-14.989531 10.82233,-7.103124 20.56586,-13.434556 20.56373,-10.347641 -0.005,6.649417 -21.14289,23.659582 -14.73245,23.659742 7.00678,1.8e-4 16.59506,-8.345135 16.59506,-8.345135 z"
       sodipodi:type="rect" />
  </g>
</svg>
