<?xml version="1.0" encoding="UTF-8" standalone="no"?>
<!-- Created with Inkscape (http://www.inkscape.org/) -->

<svg
   width="50mm"
   height="100mm"
   viewBox="0 0 50 100"
   version="1.1"
   id="svg5"
   inkscape:version="1.2.2 (1:1.2.2+202212051550+b0a8486541)"
   sodipodi:docname="hatches.svg"
   xmlns:inkscape="http://www.inkscape.org/namespaces/inkscape"
   xmlns:sodipodi="http://sodipodi.sourceforge.net/DTD/sodipodi-0.dtd"
   xmlns="http://www.w3.org/2000/svg"
   xmlns:svg="http://www.w3.org/2000/svg">
  <sodipodi:namedview
     id="namedview7"
     pagecolor="#ffffff"
     bordercolor="#666666"
     borderopacity="1.0"
     inkscape:showpageshadow="2"
     inkscape:pageopacity="0.0"
     inkscape:pagecheckerboard="0"
     inkscape:deskcolor="#d1d1d1"
     inkscape:document-units="mm"
     showgrid="false"
     inkscape:zoom="0.58838337"
     inkscape:cx="53.536523"
     inkscape:cy="306.77278"
     inkscape:window-width="1600"
     inkscape:window-height="847"
     inkscape:window-x="0"
     inkscape:window-y="0"
     inkscape:window-maximized="1"
     inkscape:current-layer="layer1" />
  <defs
     id="defs2">
    <inkscape:path-effect
       effect="rough_hatches"
       id="path-effect535"
       is_visible="true"
       lpeversion="1.2"
       direction="28.129801,14.486721 , 18.026899,18.839356"
       dist_rdm="75;1"
       growth="0"
       do_bend="true"
       bender="17.356517,25.961772 , 6.5111594,4.4836859"
       bottom_edge_variation="9.9570007;1"
       top_edge_variation="9.9570007;1"
       bottom_tgt_variation="0;1"
       top_tgt_variation="0;1"
       scale_bf="1"
       scale_bb="1"
       scale_tf="1"
       scale_tb="1"
       top_smth_variation="0;1"
       bottom_smth_variation="0;1"
       fat_output="true"
       stroke_width_top="1"
       stroke_width_bottom="1"
       front_thickness="1"
       back_thickness="0.25" />
  </defs>
  <g
     inkscape:label="Layer 1"
     inkscape:groupmode="layer"
     id="layer1">
    <path
       style="fill:#000000;stroke:#000000;stroke-width:4.253;stroke-linejoin:round;stroke-dasharray:none;stop-color:#000000"
       id="rect533"
       width="38.572575"
       height="89.44857"
       x="5.8246737"
       y="4.5649705"
       inkscape:path-effect="#path-effect535"
       d="m 37.192276,94.013541 c 0,0 6.06991,-5.111282 6.078463,-9.579455 0.0047,-2.480796 -4.166567,0.06007 -9.130862,3.162273 -4.984821,3.115035 -10.740015,6.762271 -13.710788,6.761403 -3.228157,-9.43e-4 2.174048,-5.8147 8.190044,-12.469709 C 34.668645,75.195968 41.211897,67.759631 41.227066,64.87467 41.24321,61.804069 32.17654,68.898443 22.686924,76.401246 13.206429,83.896838 3.2795275,91.744229 3.2505873,91.265893 3.2079712,90.561515 13.362477,81.90365 23.050871,72.604577 32.786459,63.260208 41.942406,53.429838 41.950798,51.401848 41.959836,49.217486 32.901307,57.041632 23.373717,64.670069 13.888952,72.264217 3.9301069,79.665407 3.9363141,77.554233 3.9428464,75.332507 15.344262,64.325361 25.979513,52.924469 36.734079,41.395671 46.700537,29.489567 46.688184,26.382853 46.675264,23.133531 37.73204,31.082373 28.32084,38.91472 18.94493,46.717698 9.0796265,54.416519 9.0654413,51.667842 9.0506003,48.792088 18.404951,38.477299 27.110479,28.495038 35.867123,18.454165 44.104858,8.5538474 43.882638,7.433015 43.614135,6.0787412 34.752125,15.212792 25.474778,24.125421 16.197431,33.038051 6.5005142,41.726343 6.4995127,40.814617 6.4982285,39.645493 14.615344,31.345989 21.83491,23.084048 29.046149,14.831635 35.433877,6.6219807 33.294923,6.6186028 30.965659,6.6149243 23.934149,12.939411 17.350946,18.820851 10.748807,24.719207 4.5404131,30.226813 4.5425963,29.211004 4.5452773,27.963599 9.4705391,22.468343 13.716461,17.264147 17.977233,12.041749 21.619704,7.0513318 19.602798,7.0474407 15.156517,7.0388629 5.8246737,17.29946 5.8246737,17.29946 c 0,0 10.0290943,-9.5372426 13.1007313,-9.5295917 1.84597,0.0046 -1.809,4.8989497 -6.036143,10.0709357 C 8.6769656,22.994623 3.8311785,28.48548 3.8264233,29.906727 3.8206551,31.630759 10.405503,26.129072 17.186886,20.07084 23.954433,14.024968 30.983534,7.3455974 32.629281,7.3491217 34.599199,7.3533401 28.190477,15.462946 21.00628,23.661714 13.84974,31.828919 5.7712326,40.228235 5.7711145,41.501921 5.7709626,43.140433 15.570978,34.708485 24.87694,25.820178 34.208275,16.907637 43.080387,7.4376052 43.224716,8.1688499 43.415087,9.1333706 35.156176,18.935178 26.388937,28.960385 17.674163,38.925599 8.314127,49.308284 8.3262123,52.347688 8.3397646,55.756 18.208581,48.448759 27.614863,40.670698 37.056678,32.863255 46.003,24.60391 46.009976,27.104719 46.018116,30.022347 36.027244,41.836411 25.253517,53.354274 14.599429,64.744235 3.171861,75.831355 3.1620185,78.209932 3.1506534,80.956448 13.110515,73.930659 22.624334,66.360806 32.181084,58.756794 41.246709,50.633531 41.238879,52.1005 41.229017,53.94815 32.047748,63.693576 22.29318,73.030664 12.584452,82.323874 2.4086279,91.055548 2.4593846,91.909949 2.5235591,92.990215 12.459831,85.495712 21.952046,78.036991 c 9.508113,-7.471214 18.561746,-14.8435 18.546447,-12.475137 -0.01751,2.71038 -6.665445,10.140122 -12.776501,16.866373 -6.077123,6.688901 -11.496843,12.577832 -8.07369,12.580763 3.738363,0.0032 9.492742,-3.313346 14.293026,-6.254535 4.782673,-2.930398 8.584827,-5.456754 8.579202,-3.648085 -0.01284,4.127089 -5.328254,8.907171 -5.328254,8.907171 z"
       sodipodi:type="rect"
       ry="6.5401931"
       rx="1.624563" />
  </g>
</svg>
