<svg width="271" height="38" viewBox="0 0 271 38" fill="none" xmlns="http://www.w3.org/2000/svg">
<path d="M15.128 37.912C11.96 37.912 9.288 37.416 7.112 36.424C4.936 35.4 3.288 34.024 2.168 32.296C1.048 30.536 0.488 28.52 0.488 26.248H8.12C8.12 27.144 8.36 27.976 8.84 28.744C9.352 29.512 10.12 30.136 11.144 30.616C12.168 31.064 13.496 31.288 15.128 31.288C16.6 31.288 17.832 31.096 18.824 30.712C19.816 30.328 20.568 29.8 21.08 29.128C21.592 28.424 21.848 27.624 21.848 26.728C21.848 25.608 21.368 24.728 20.408 24.088C19.448 23.416 17.896 22.984 15.752 22.792L13.112 22.552C9.624 22.264 6.84 21.176 4.76 19.288C2.68 17.4 1.64 14.904 1.64 11.8C1.64 9.56 2.168 7.624 3.224 5.992C4.312 4.36 5.816 3.112 7.736 2.248C9.656 1.352 11.928 0.903998 14.552 0.903998C17.304 0.903998 19.656 1.384 21.608 2.344C23.592 3.272 25.112 4.6 26.168 6.328C27.224 8.024 27.752 10.024 27.752 12.328H20.072C20.072 11.464 19.864 10.68 19.448 9.976C19.032 9.24 18.408 8.648 17.576 8.2C16.776 7.752 15.768 7.528 14.552 7.528C13.4 7.528 12.424 7.72 11.624 8.104C10.856 8.488 10.28 9.016 9.896 9.688C9.512 10.328 9.32 11.032 9.32 11.8C9.32 12.792 9.672 13.656 10.376 14.392C11.08 15.128 12.232 15.56 13.832 15.688L16.52 15.928C19.08 16.152 21.336 16.712 23.288 17.608C25.24 18.472 26.76 19.672 27.848 21.208C28.968 22.712 29.528 24.552 29.528 26.728C29.528 28.968 28.936 30.936 27.752 32.632C26.6 34.296 24.952 35.592 22.808 36.52C20.664 37.448 18.104 37.912 15.128 37.912ZM47.3356 37.912C45.0316 37.912 42.9836 37.56 41.1916 36.856C39.3996 36.12 37.8796 35.128 36.6316 33.88C35.4156 32.632 34.4876 31.208 33.8476 29.608C33.2076 27.976 32.8876 26.264 32.8876 24.472V23.368C32.8876 21.544 33.2076 19.816 33.8476 18.184C34.5196 16.52 35.4796 15.064 36.7276 13.816C38.0076 12.568 39.5436 11.592 41.3356 10.888C43.1276 10.152 45.1276 9.784 47.3356 9.784C49.6076 9.784 51.6236 10.152 53.3836 10.888C55.1756 11.592 56.6956 12.568 57.9436 13.816C59.1916 15.064 60.1516 16.52 60.8236 18.184C61.4956 19.816 61.8316 21.544 61.8316 23.368V24.472C61.8316 26.264 61.5116 27.976 60.8716 29.608C60.2316 31.208 59.2876 32.632 58.0396 33.88C56.8236 35.128 55.3196 36.12 53.5276 36.856C51.7356 37.56 49.6716 37.912 47.3356 37.912ZM47.3356 31.432C48.8396 31.432 50.0876 31.112 51.0796 30.472C52.0716 29.832 52.8236 28.936 53.3356 27.784C53.8796 26.632 54.1516 25.352 54.1516 23.944C54.1516 22.44 53.8796 21.128 53.3356 20.008C52.7916 18.856 52.0076 17.944 50.9836 17.272C49.9916 16.6 48.7756 16.264 47.3356 16.264C45.9276 16.264 44.7116 16.6 43.6876 17.272C42.6636 17.944 41.8796 18.856 41.3356 20.008C40.8236 21.128 40.5676 22.44 40.5676 23.944C40.5676 25.352 40.8236 26.632 41.3356 27.784C41.8476 28.936 42.6156 29.832 43.6396 30.472C44.6636 31.112 45.8956 31.432 47.3356 31.432ZM83.3675 37.864C81.2235 37.864 79.3355 37.416 77.7035 36.52C76.0715 35.592 74.7915 34.264 73.8635 32.536C72.9355 30.808 72.4395 28.696 72.3755 26.2H73.2875V37H67.1915V1.96H74.8715V19.768L73.0475 22.072C73.1435 19.416 73.6395 17.192 74.5355 15.4C75.4635 13.576 76.7275 12.216 78.3275 11.32C79.9275 10.392 81.7515 9.928 83.7995 9.928C85.5915 9.928 87.2075 10.264 88.6475 10.936C90.1195 11.576 91.3675 12.504 92.3915 13.72C93.4155 14.904 94.1995 16.312 94.7435 17.944C95.3195 19.576 95.6075 21.352 95.6075 23.272V24.328C95.6075 26.248 95.3195 28.024 94.7435 29.656C94.1995 31.288 93.3835 32.728 92.2955 33.976C91.2395 35.192 89.9595 36.152 88.4555 36.856C86.9515 37.528 85.2555 37.864 83.3675 37.864ZM81.3515 31.432C82.6635 31.432 83.7995 31.112 84.7595 30.472C85.7515 29.832 86.5195 28.936 87.0635 27.784C87.6075 26.6 87.8795 25.272 87.8795 23.8C87.8795 22.296 87.6075 20.984 87.0635 19.864C86.5195 18.744 85.7515 17.88 84.7595 17.272C83.7995 16.632 82.6635 16.312 81.3515 16.312C80.1995 16.312 79.1115 16.584 78.0875 17.128C77.0635 17.672 76.2315 18.456 75.5915 19.48C74.9835 20.472 74.6795 21.688 74.6795 23.128V24.904C74.6795 26.28 74.9995 27.464 75.6395 28.456C76.3115 29.416 77.1595 30.152 78.1835 30.664C79.2075 31.176 80.2635 31.432 81.3515 31.432ZM100.942 37V10.696H107.038V21.976H106.894C106.894 18.264 107.678 15.4 109.246 13.384C110.846 11.368 113.15 10.36 116.158 10.36H117.166V16.984H115.246C113.134 16.984 111.502 17.56 110.35 18.712C109.198 19.832 108.622 21.464 108.622 23.608V37H100.942ZM122.393 37V10.696H130.073V37H122.393ZM118.889 16.36V10.696H130.073V16.36H118.889ZM125.369 8.104C123.929 8.104 122.857 7.736 122.153 7C121.481 6.232 121.145 5.272 121.145 4.12C121.145 2.936 121.481 1.976 122.153 1.24C122.857 0.471997 123.929 0.0879974 125.369 0.0879974C126.809 0.0879974 127.865 0.471997 128.537 1.24C129.241 1.976 129.593 2.936 129.593 4.12C129.593 5.272 129.241 6.232 128.537 7C127.865 7.736 126.809 8.104 125.369 8.104ZM147.16 37.816C143.416 37.816 140.488 37.048 138.376 35.512C136.264 33.976 135.144 31.816 135.016 29.032H141.832C141.96 29.864 142.456 30.616 143.32 31.288C144.216 31.928 145.544 32.248 147.304 32.248C148.648 32.248 149.752 32.024 150.616 31.576C151.512 31.096 151.96 30.424 151.96 29.56C151.96 28.792 151.624 28.184 150.952 27.736C150.28 27.256 149.08 26.92 147.352 26.728L145.288 26.536C142.12 26.216 139.736 25.336 138.136 23.896C136.568 22.456 135.784 20.616 135.784 18.376C135.784 16.52 136.248 14.968 137.176 13.72C138.104 12.472 139.384 11.528 141.016 10.888C142.68 10.248 144.568 9.928 146.68 9.928C150.072 9.928 152.808 10.68 154.888 12.184C156.968 13.656 158.056 15.8 158.152 18.616H151.336C151.208 17.752 150.76 17.032 149.992 16.456C149.224 15.848 148.088 15.544 146.584 15.544C145.4 15.544 144.456 15.768 143.752 16.216C143.048 16.664 142.696 17.272 142.696 18.04C142.696 18.776 143 19.336 143.608 19.72C144.216 20.104 145.208 20.376 146.584 20.536L148.648 20.728C151.88 21.08 154.392 21.976 156.184 23.416C157.976 24.856 158.872 26.792 158.872 29.224C158.872 30.984 158.392 32.52 157.432 33.832C156.472 35.112 155.112 36.104 153.352 36.808C151.592 37.48 149.528 37.816 147.16 37.816ZM175.656 37.912C173.384 37.912 171.4 37.544 169.704 36.808C168.04 36.04 166.648 35.016 165.528 33.736C164.408 32.456 163.576 31.016 163.032 29.416C162.488 27.784 162.216 26.104 162.216 24.376V23.464C162.216 21.672 162.504 19.96 163.08 18.328C163.656 16.664 164.504 15.192 165.624 13.912C166.744 12.632 168.136 11.624 169.8 10.888C171.496 10.152 173.432 9.784 175.608 9.784C177.976 9.784 180.072 10.248 181.896 11.176C183.72 12.072 185.176 13.336 186.264 14.968C187.352 16.6 187.96 18.472 188.088 20.584H180.552C180.424 19.4 179.944 18.408 179.112 17.608C178.312 16.776 177.144 16.36 175.608 16.36C174.328 16.36 173.256 16.68 172.392 17.32C171.56 17.96 170.936 18.84 170.52 19.96C170.104 21.08 169.896 22.408 169.896 23.944C169.896 25.352 170.088 26.632 170.472 27.784C170.856 28.904 171.464 29.784 172.296 30.424C173.16 31.032 174.28 31.336 175.656 31.336C176.68 31.336 177.544 31.16 178.248 30.808C178.984 30.424 179.56 29.912 179.976 29.272C180.424 28.6 180.696 27.832 180.792 26.968H188.28C188.184 29.144 187.576 31.064 186.456 32.728C185.336 34.36 183.848 35.64 181.992 36.568C180.136 37.464 178.024 37.912 175.656 37.912ZM206.008 37.912C203.704 37.912 201.656 37.56 199.864 36.856C198.072 36.12 196.552 35.128 195.304 33.88C194.088 32.632 193.16 31.208 192.52 29.608C191.88 27.976 191.56 26.264 191.56 24.472V23.368C191.56 21.544 191.88 19.816 192.52 18.184C193.192 16.52 194.152 15.064 195.4 13.816C196.68 12.568 198.216 11.592 200.008 10.888C201.8 10.152 203.8 9.784 206.008 9.784C208.28 9.784 210.296 10.152 212.056 10.888C213.848 11.592 215.368 12.568 216.616 13.816C217.864 15.064 218.824 16.52 219.496 18.184C220.168 19.816 220.504 21.544 220.504 23.368V24.472C220.504 26.264 220.184 27.976 219.544 29.608C218.904 31.208 217.96 32.632 216.712 33.88C215.496 35.128 213.992 36.12 212.2 36.856C210.408 37.56 208.344 37.912 206.008 37.912ZM206.008 31.432C207.512 31.432 208.76 31.112 209.752 30.472C210.744 29.832 211.496 28.936 212.008 27.784C212.552 26.632 212.824 25.352 212.824 23.944C212.824 22.44 212.552 21.128 212.008 20.008C211.464 18.856 210.68 17.944 209.656 17.272C208.664 16.6 207.448 16.264 206.008 16.264C204.6 16.264 203.384 16.6 202.359 17.272C201.336 17.944 200.552 18.856 200.008 20.008C199.496 21.128 199.24 22.44 199.24 23.944C199.24 25.352 199.496 26.632 200.008 27.784C200.52 28.936 201.288 29.832 202.312 30.472C203.336 31.112 204.568 31.432 206.008 31.432ZM225.863 37V10.696H231.959V21.976H231.815C231.815 18.264 232.599 15.4 234.167 13.384C235.767 11.368 238.071 10.36 241.079 10.36H242.087V16.984H240.167C238.055 16.984 236.423 17.56 235.271 18.712C234.119 19.832 233.543 21.464 233.543 23.608V37H225.863ZM257.974 37.912C255.734 37.912 253.75 37.528 252.022 36.76C250.326 35.992 248.902 34.968 247.75 33.688C246.63 32.376 245.766 30.92 245.158 29.32C244.582 27.688 244.294 26.024 244.294 24.328V23.368C244.294 21.608 244.582 19.928 245.158 18.328C245.766 16.696 246.63 15.24 247.75 13.96C248.87 12.68 250.262 11.672 251.926 10.936C253.622 10.168 255.542 9.784 257.686 9.784C260.502 9.784 262.87 10.424 264.79 11.704C266.742 12.952 268.23 14.6 269.254 16.648C270.278 18.664 270.79 20.872 270.79 23.272V25.864H247.51V21.496H266.134L263.638 23.512C263.638 21.944 263.414 20.6 262.966 19.48C262.518 18.36 261.846 17.512 260.95 16.936C260.086 16.328 258.998 16.024 257.686 16.024C256.342 16.024 255.206 16.328 254.278 16.936C253.35 17.544 252.646 18.44 252.166 19.624C251.686 20.776 251.446 22.2 251.446 23.896C251.446 25.464 251.67 26.84 252.118 28.024C252.566 29.176 253.27 30.072 254.23 30.712C255.19 31.352 256.438 31.672 257.974 31.672C259.382 31.672 260.534 31.4 261.43 30.856C262.326 30.312 262.934 29.64 263.254 28.84H270.31C269.926 30.6 269.174 32.168 268.054 33.544C266.934 34.92 265.526 35.992 263.83 36.76C262.134 37.528 260.182 37.912 257.974 37.912Z" fill="#3B4C59"/>
</svg>
